<mxfile host="app.diagrams.net" modified="2022-09-23T03:30:38.754Z" agent="5.0 (Macintosh; Intel Mac OS X 10_15_7) AppleWebKit/537.36 (KHTML, like Gecko) Chrome/105.0.0.0 Safari/537.36" etag="QQVyHfJv_IWWSm7oW9Vp" version="20.3.3" type="github">
  <diagram id="AqItSvwlx6Q80qOohcSG" name="第 1 页">
    <mxGraphModel dx="930" dy="471" grid="1" gridSize="10" guides="1" tooltips="1" connect="1" arrows="1" fold="1" page="1" pageScale="1" pageWidth="827" pageHeight="1169" math="0" shadow="0">
      <root>
        <mxCell id="0" />
        <mxCell id="1" parent="0" />
        <mxCell id="i5cJdov8h7KXsD-fAKNL-1" style="edgeStyle=orthogonalEdgeStyle;rounded=0;orthogonalLoop=1;jettySize=auto;html=1;exitX=1;exitY=0.5;exitDx=0;exitDy=0;entryX=0;entryY=0.5;entryDx=0;entryDy=0;" edge="1" parent="1" source="i5cJdov8h7KXsD-fAKNL-3" target="i5cJdov8h7KXsD-fAKNL-5">
          <mxGeometry relative="1" as="geometry" />
        </mxCell>
        <mxCell id="i5cJdov8h7KXsD-fAKNL-3" value="用户请求" style="rounded=1;whiteSpace=wrap;html=1;" vertex="1" parent="1">
          <mxGeometry x="120" y="180" width="120" height="60" as="geometry" />
        </mxCell>
        <mxCell id="i5cJdov8h7KXsD-fAKNL-5" value="前端域名" style="rounded=1;whiteSpace=wrap;html=1;" vertex="1" parent="1">
          <mxGeometry x="294" y="180" width="120" height="60" as="geometry" />
        </mxCell>
        <mxCell id="i5cJdov8h7KXsD-fAKNL-9" value="华北CLB" style="rounded=1;whiteSpace=wrap;html=1;" vertex="1" parent="1">
          <mxGeometry x="490" y="90" width="120" height="60" as="geometry" />
        </mxCell>
        <mxCell id="i5cJdov8h7KXsD-fAKNL-11" value="华北机房" style="rounded=1;whiteSpace=wrap;html=1;" vertex="1" parent="1">
          <mxGeometry x="697" y="90" width="120" height="60" as="geometry" />
        </mxCell>
        <mxCell id="i5cJdov8h7KXsD-fAKNL-12" value="北中机房" style="rounded=1;whiteSpace=wrap;html=1;" vertex="1" parent="1">
          <mxGeometry x="697" y="180" width="120" height="60" as="geometry" />
        </mxCell>
        <mxCell id="i5cJdov8h7KXsD-fAKNL-13" value="华南机房" style="rounded=1;whiteSpace=wrap;html=1;" vertex="1" parent="1">
          <mxGeometry x="697" y="270" width="120" height="60" as="geometry" />
        </mxCell>
        <mxCell id="i5cJdov8h7KXsD-fAKNL-14" value="" style="endArrow=none;dashed=1;html=1;dashPattern=1 3;strokeWidth=2;rounded=0;" edge="1" parent="1">
          <mxGeometry width="50" height="50" relative="1" as="geometry">
            <mxPoint x="827" y="70" as="sourcePoint" />
            <mxPoint x="827" y="70" as="targetPoint" />
            <Array as="points">
              <mxPoint x="757" y="70" />
              <mxPoint x="687" y="70" />
              <mxPoint x="687" y="350" />
              <mxPoint x="827" y="350" />
            </Array>
          </mxGeometry>
        </mxCell>
        <mxCell id="i5cJdov8h7KXsD-fAKNL-19" value="华中CLB" style="rounded=1;whiteSpace=wrap;html=1;" vertex="1" parent="1">
          <mxGeometry x="490" y="180" width="120" height="60" as="geometry" />
        </mxCell>
        <mxCell id="i5cJdov8h7KXsD-fAKNL-20" value="华南CLB" style="rounded=1;whiteSpace=wrap;html=1;" vertex="1" parent="1">
          <mxGeometry x="490" y="270" width="120" height="60" as="geometry" />
        </mxCell>
      </root>
    </mxGraphModel>
  </diagram>
</mxfile>
